<?xml version="1.0" standalone="no"?>
<!DOCTYPE svg PUBLIC "-//W3C//DTD SVG 20010904//EN"
 "http://www.w3.org/TR/2001/REC-SVG-20010904/DTD/svg10.dtd">
<svg version="1.0" xmlns="http://www.w3.org/2000/svg"
 width="1024.000000pt" height="1024.000000pt" viewBox="0 0 1024.000000 1024.000000"
 preserveAspectRatio="xMidYMid meet">

<g transform="translate(0.000000,1024.000000) scale(0.100000,-0.100000)"
fill="#000000" stroke="none">
<path d="M4957 8512 c-86 -87 -157 -162 -157 -167 0 -6 72 -82 160 -170 l160
-160 162 160 c89 88 164 161 167 163 5 2 -167 174 -274 274 l-60 56 -158 -156z"/>
<path d="M3856 8624 c-4 -15 -4 -40 0 -57 8 -36 -9 -29 -31 14 -9 16 -20 29
-27 29 -16 0 -3 -78 18 -101 24 -27 9 -24 -30 6 -18 14 -36 25 -40 25 -12 0 5
-43 31 -77 l24 -33 -31 6 c-37 8 -40 -9 -8 -43 21 -23 21 -23 2 -38 -19 -15
-19 -15 5 -35 13 -12 21 -26 17 -35 -8 -22 4 -45 24 -45 13 0 20 -9 22 -27 2
-22 13 -33 45 -48 24 -12 48 -26 54 -32 15 -15 -5 -25 -115 -57 -49 -14 -91
-28 -93 -30 -7 -6 60 -104 76 -111 14 -5 32 5 130 77 l45 32 37 -42 c20 -23
42 -42 48 -42 7 0 28 -16 47 -36 28 -27 39 -32 49 -24 10 8 16 8 22 -3 4 -7
23 -24 41 -38 31 -22 35 -22 46 -8 10 15 14 14 40 -12 33 -33 56 -37 56 -11 0
10 3 13 8 6 9 -13 54 -44 64 -44 15 0 8 27 -12 45 -11 10 -18 20 -15 23 2 3
20 -9 40 -27 20 -17 45 -31 55 -31 27 0 25 6 -7 35 l-28 24 43 -6 c23 -3 42
-3 42 0 0 3 -28 21 -62 39 -70 37 -149 106 -221 192 -42 51 -48 64 -43 90 3
17 17 40 31 52 l26 20 -56 18 c-42 13 -59 14 -75 6 -12 -6 -27 -10 -34 -8 -23
5 -178 191 -199 237 -11 25 -22 67 -26 95 -7 55 -25 71 -35 30z"/>
<path d="M6378 8465 c-222 -61 -378 -287 -353 -509 19 -175 152 -338 322 -397
128 -44 247 -34 379 31 123 60 206 159 238 285 66 252 -72 511 -313 585 -73
23 -200 25 -273 5z m217 -50 c81 -17 163 -56 200 -95 l27 -28 -259 -172 c-142
-95 -300 -202 -351 -238 -51 -35 -95 -62 -97 -60 -12 12 -35 131 -35 183 0
194 142 368 332 410 82 18 99 18 183 0z"/>
<path d="M2365 8316 c-318 -74 -569 -319 -640 -626 -25 -108 -23 -290 4 -395
43 -167 164 -351 297 -452 80 -60 212 -125 304 -150 87 -24 300 -24 385 -1
197 53 344 148 461 295 261 331 232 802 -68 1102 -93 92 -201 159 -329 202
-83 28 -109 32 -224 35 -86 3 -150 -1 -190 -10z"/>
<path d="M7730 7806 c-30 -18 -140 -84 -245 -145 -104 -62 -223 -133 -262
-157 l-73 -45 0 -404 0 -403 48 -30 c63 -40 581 -342 597 -348 13 -5 157 75
468 260 l197 118 0 403 0 403 -32 24 c-33 25 -576 344 -604 355 -18 7 -19 -36
-1 -59 6 -9 50 -39 97 -66 47 -27 135 -78 195 -114 208 -122 285 -160 310
-155 14 2 25 3 25 1 0 -1 -55 -35 -122 -75 -68 -40 -210 -126 -316 -191 -106
-65 -198 -118 -203 -118 -9 0 -392 226 -589 346 -51 32 -53 34 -25 34 20 0
101 42 245 126 118 69 247 144 287 167 66 38 72 45 73 75 0 17 -3 32 -7 31 -5
0 -33 -15 -63 -33z"/>
<path d="M4933 7579 c-295 -38 -590 -174 -848 -391 -85 -71 -282 -266 -357
-353 -107 -124 -291 -389 -380 -549 l-43 -78 -204 -77 -204 -77 -39 -144 c-21
-80 -42 -148 -46 -151 -4 -4 -106 -57 -227 -119 -396 -203 -725 -386 -725
-403 0 -7 28 -50 62 -97 33 -47 80 -114 104 -150 l43 -65 -61 -162 -61 -162
105 -149 105 -149 6 -74 c16 -176 47 -486 53 -518 6 -31 8 -32 20 -17 12 16
16 16 76 -2 102 -32 461 -110 628 -136 139 -23 422 -56 467 -56 10 0 -15 18
-55 40 -203 111 -494 308 -673 457 -139 115 -434 413 -536 541 -71 87 -81 105
-73 125 4 12 37 90 73 174 l64 152 38 -79 39 -79 -27 -67 -27 -68 28 -35 c14
-20 119 -129 232 -242 347 -348 689 -599 1142 -838 l136 -72 189 26 c548 73
1065 181 1663 346 398 111 815 254 1291 443 92 36 173 66 180 66 8 0 -25 -39
-71 -87 -102 -104 -88 -95 90 62 223 197 482 468 664 693 32 40 62 72 66 72
20 0 140 -63 140 -73 0 -37 -397 -485 -595 -672 -188 -178 -484 -440 -635
-561 l-75 -61 -135 -10 c-74 -6 -137 -8 -140 -6 -2 2 2 8 10 13 26 15 408 335
404 339 -3 3 -58 -15 -219 -74 -854 -313 -1798 -552 -2605 -659 -330 -44 -427
-49 -638 -31 -228 19 -362 37 -553 75 -118 24 -478 111 -563 137 -18 5 -19 1
-13 -52 3 -32 10 -62 15 -67 5 -5 55 -24 112 -42 l102 -34 80 -128 c92 -149
268 -385 394 -531 77 -89 103 -110 194 -165 58 -35 139 -91 180 -124 269 -218
481 -349 745 -459 338 -142 629 -208 985 -222 448 -17 918 95 1390 332 152 76
366 221 500 336 31 27 114 83 186 126 128 76 133 81 235 203 85 102 172 219
272 365 8 11 36 28 63 38 l49 17 49 143 c56 163 90 237 110 237 8 0 22 7 30
16 9 8 16 12 16 8 0 -4 8 2 18 13 9 11 23 18 30 16 6 -3 12 1 12 9 0 8 13 22
30 31 29 17 29 20 24 75 -4 31 -7 58 -9 59 -1 2 -35 -6 -76 -17 -300 -82 -663
-153 -1048 -205 -102 -14 -262 -37 -356 -50 -328 -48 -876 -109 -1105 -125
-178 -12 -453 -12 -425 0 22 9 215 65 280 81 22 5 88 25 146 44 133 42 259 63
714 120 784 98 1150 149 1370 191 130 25 395 87 427 99 13 5 23 -5 43 -45 14
-28 30 -48 35 -45 6 3 10 39 10 79 0 40 5 155 11 256 l11 183 100 145 c95 137
100 147 90 176 -5 17 -30 88 -55 158 l-46 127 68 88 c37 48 93 124 123 168
l56 80 -32 22 c-134 87 -676 372 -876 459 l-75 33 -41 141 c-27 95 -46 145
-58 152 -10 5 -99 39 -199 74 -129 45 -188 71 -202 88 -11 13 -47 70 -80 126
-140 236 -293 437 -483 632 -206 211 -359 327 -572 437 -138 70 -205 95 -345
130 -160 39 -356 51 -512 30z m127 -524 c0 -168 -3 -305 -6 -305 -3 0 -24 13
-47 28 -23 16 -143 89 -267 162 -124 73 -249 148 -279 167 l-53 35 31 19 c68
41 229 117 294 138 87 29 230 59 285 60 l42 1 0 -305z m304 280 c87 -20 227
-70 301 -107 83 -42 148 -89 138 -99 -4 -4 -139 -84 -299 -177 -159 -93 -302
-177 -317 -187 l-27 -17 0 307 0 308 69 -7 c39 -3 99 -13 135 -21z m-887 -364
c93 -54 221 -131 286 -170 65 -39 145 -85 178 -102 32 -17 59 -35 59 -39 0 -4
-42 -36 -92 -71 -115 -78 -390 -271 -648 -453 -107 -76 -200 -140 -205 -142
-6 -3 -21 99 -39 268 -15 150 -34 320 -41 378 l-12 105 96 99 c82 84 237 226
247 226 2 0 79 -44 171 -99z m1540 16 c48 -40 123 -111 166 -157 65 -70 77
-88 72 -110 -2 -14 -16 -144 -30 -290 -28 -289 -43 -432 -47 -436 -2 -1 -91
59 -198 134 -374 260 -546 379 -652 451 -60 40 -108 76 -108 80 0 3 46 33 102
66 386 227 575 334 590 335 10 0 57 -33 105 -73z m-2143 -394 c5 -30 42 -338
70 -585 2 -21 2 -38 0 -38 -8 0 -390 173 -397 180 -12 11 18 66 124 225 95
142 179 253 191 254 3 1 9 -16 12 -36z m2644 -173 c106 -154 168 -258 160
-266 -9 -8 -368 -174 -378 -174 -13 0 -13 22 4 170 8 69 22 199 31 290 9 91
18 171 21 179 7 20 45 -26 162 -199z m-1458 -436 c0 -317 -3 -574 -7 -572 -10
4 -374 189 -693 351 -134 69 -246 129 -247 134 -2 6 124 98 279 206 156 108
366 254 468 326 102 71 188 130 193 130 4 1 7 -258 7 -575z m208 508 c136 -96
736 -511 799 -552 29 -19 53 -38 53 -42 0 -4 -129 -71 -287 -148 -159 -78
-371 -185 -473 -238 -102 -53 -188 -98 -192 -100 -5 -2 -8 255 -8 572 0 317 3
576 6 576 3 0 49 -31 102 -68z m-2052 -469 c-18 -44 -32 -62 -57 -75 -48 -25
-202 -88 -205 -85 -6 6 28 112 40 124 9 11 217 91 238 92 4 1 -4 -25 -16 -56z
m3913 16 l120 -41 20 -61 c12 -33 19 -63 16 -65 -2 -3 -51 14 -109 37 -57 22
-109 41 -115 41 -6 0 -20 18 -31 40 -32 62 -41 90 -30 90 5 0 64 -18 129 -41z
m-3464 -64 c94 -41 186 -82 205 -91 l35 -16 -45 -41 c-128 -116 -338 -314
-440 -413 -164 -160 -215 -205 -218 -194 -6 17 70 313 110 430 63 182 160 400
178 400 3 0 82 -34 175 -75z m3149 -84 c62 -134 119 -293 164 -456 23 -82 45
-195 39 -201 -5 -6 -33 19 -182 164 -153 149 -264 253 -398 375 -53 49 -97 92
-97 96 0 5 19 16 43 25 23 8 112 47 197 86 85 38 158 66 162 62 4 -4 36 -72
72 -151z m-1882 -602 c-31 -20 -115 -74 -187 -119 -208 -133 -457 -294 -640
-416 l-170 -114 -105 41 c-58 23 -143 56 -190 74 -333 128 -457 177 -467 188
-8 8 -10 26 -7 49 5 30 26 56 118 145 98 96 481 462 510 488 6 6 55 52 109
102 l97 93 495 -247 494 -247 -57 -37z m1500 335 c106 -100 291 -278 411 -395
l219 -214 -4 -40 -3 -40 -245 -98 c-135 -54 -304 -120 -377 -148 l-132 -49
-143 93 c-79 51 -231 149 -338 217 -107 68 -249 158 -315 200 -66 42 -155 98
-197 124 -43 27 -78 50 -78 52 0 4 732 369 935 467 28 14 55 22 62 18 7 -3 99
-88 205 -187z m1041 25 c306 -144 742 -370 775 -403 10 -10 -2 -18 -62 -45
l-74 -32 -174 96 c-183 101 -442 231 -648 326 l-125 57 -22 54 c-12 29 -24 65
-28 80 l-7 26 106 -43 c59 -25 175 -76 259 -116z m-4357 129 c-2 -7 -14 -42
-26 -78 l-21 -66 -162 -84 c-138 -71 -261 -137 -678 -363 l-56 -31 -73 30
c-41 16 -75 35 -77 41 -6 17 653 364 957 504 135 62 144 66 136 47z m-134
-474 c-7 -38 -16 -63 -28 -71 -93 -63 -249 -166 -258 -169 -12 -5 -46 55 -46
79 1 7 15 29 33 49 22 27 72 58 167 106 74 37 136 67 138 66 1 -1 -1 -28 -6
-60z m4415 -6 c15 -6 37 -19 47 -27 18 -15 19 -15 13 2 -4 9 -2 17 4 17 16 0
259 -134 259 -143 0 -4 -15 -30 -34 -57 l-34 -49 -58 35 c-33 20 -68 43 -79
53 -19 17 -49 35 -160 96 -78 44 -85 49 -85 63 0 11 11 12 51 7 37 -5 50 -4
45 4 -9 14 -4 14 31 -1z m-2334 -99 c3 -22 7 -42 9 -44 1 -2 19 -5 38 -7 l35
-3 3 48 c2 26 5 47 7 47 9 0 939 -592 1000 -636 17 -13 18 -16 5 -24 -32 -20
-756 -190 -957 -225 l-99 -18 -129 27 c-312 65 -910 208 -923 221 -4 3 -2 9 4
13 16 11 595 386 804 521 102 66 188 120 191 120 4 1 9 -17 12 -40z m-2458
-212 c188 -287 370 -498 570 -661 160 -131 395 -306 395 -294 0 2 -76 69 -169
148 -93 80 -168 146 -167 147 2 2 46 -14 336 -127 454 -177 959 -327 1245
-369 44 -7 96 -15 115 -18 l35 -6 -55 -13 c-30 -7 -126 -29 -212 -49 l-158
-36 -62 17 c-137 35 -400 118 -629 199 -133 47 -244 84 -246 81 -9 -9 270
-201 456 -314 l35 -20 -45 -6 c-124 -15 -179 -17 -201 -5 -64 33 -307 181
-413 252 -386 257 -609 460 -839 764 -78 103 -209 301 -220 333 -4 10 15 28
62 57 37 23 72 42 77 42 6 0 46 -55 90 -122z m4766 -17 c11 0 11 -2 -1 -10
-13 -8 -12 -11 7 -16 20 -6 32 -26 37 -66 2 -10 6 -21 11 -25 4 -5 5 0 2 10
-4 11 -1 17 9 17 13 0 12 -6 -6 -37 -28 -47 -102 -142 -112 -143 -5 0 -8 72
-8 161 l0 160 24 -25 c13 -15 30 -26 37 -26z m-4453 -222 l-3 -43 -17 47 c-14
40 -14 49 -2 59 8 6 15 21 16 33 1 11 3 4 5 -16 2 -21 3 -57 1 -80z m418 6
c93 -36 242 -92 332 -126 89 -33 162 -63 162 -67 0 -7 -246 -166 -272 -176
-14 -6 -280 107 -370 158 l-38 21 0 128 c0 70 4 128 8 128 5 0 85 -30 178 -66z
m4791 -64 c16 -45 16 -52 3 -74 -59 -95 -685 -724 -768 -770 -17 -10 -190 -35
-246 -36 -29 0 -28 1 24 48 388 343 696 637 828 790 32 38 70 92 83 119 l24
50 17 -38 c9 -22 25 -61 35 -89z m-1042 0 c3 -58 2 -110 -2 -115 -4 -6 -66
-37 -138 -69 -71 -32 -160 -72 -197 -88 -37 -17 -73 -28 -80 -24 -7 3 -47 28
-88 56 -41 27 -96 62 -123 76 -26 15 -44 31 -40 34 5 4 78 33 163 64 85 31
229 85 320 120 91 35 168 61 172 58 3 -4 9 -54 13 -112z m-2981 -362 c85 -101
149 -184 142 -186 -27 -6 -539 168 -551 188 -5 8 230 178 247 179 4 1 77 -81
162 -181z m2298 95 c62 -42 115 -78 117 -80 2 -2 2 -6 -1 -9 -16 -15 -369
-138 -486 -169 -54 -14 -57 -10 -22 25 3 3 39 46 80 95 41 50 77 92 80 95 3 3
27 31 54 63 27 31 52 57 57 57 5 0 59 -35 121 -77z m-2002 -38 c275 -69 621
-145 685 -152 34 -3 98 5 200 27 203 43 703 158 739 170 16 6 31 8 34 6 4 -5
-272 -330 -304 -357 -18 -16 -245 -64 -419 -90 -179 -26 -411 -10 -738 52
l-118 22 -69 74 c-87 93 -260 298 -260 308 0 4 8 4 18 0 9 -3 114 -31 232 -60z
m-1932 -446 c25 -28 52 -73 67 -113 14 -36 25 -68 25 -71 0 -2 -19 2 -42 9
-24 7 -75 23 -114 35 l-71 22 -22 132 c-12 73 -25 145 -28 162 -6 30 19 7 185
-176z m5202 -616 c0 -10 -5 -34 -10 -55 l-10 -36 -153 -36 c-425 -100 -865
-146 -1717 -176 -165 -6 -331 -18 -415 -29 -222 -32 -625 -79 -808 -96 -462
-42 -1051 17 -1683 167 l-90 21 -46 81 c-26 44 -46 81 -45 82 1 1 54 -9 117
-22 344 -70 819 -138 1070 -154 408 -25 695 -7 1430 91 187 24 492 39 940 44
444 5 928 47 1265 109 161 30 155 30 155 9z m-465 -461 l-54 -78 -148 -47
c-81 -25 -206 -60 -278 -78 -125 -30 -135 -31 -275 -25 -165 7 -230 15 -230
27 0 5 8 9 18 9 11 0 54 11 98 24 43 13 140 38 214 55 248 57 653 166 707 190
1 1 -22 -34 -52 -77z m-2070 -56 c99 -24 261 -63 360 -86 99 -23 238 -55 309
-71 156 -37 492 -103 601 -119 44 -6 117 -20 162 -31 45 -11 115 -20 155 -21
115 -2 117 -4 51 -70 l-58 -57 -160 15 c-295 27 -658 87 -1010 165 -321 71
-907 208 -1014 236 -112 29 -112 35 2 47 29 3 64 9 78 14 13 5 45 8 71 8 27
-1 48 2 48 5 0 3 51 7 113 8 103 1 127 -2 292 -43z m-1238 -132 c-3 -3 -12 -4
-19 -1 -8 3 -5 6 6 6 11 1 17 -2 13 -5z m-527 -73 c330 -51 638 -71 1090 -72
l365 -1 215 -72 215 -71 -130 -8 c-197 -12 -958 -1 -1185 18 -107 9 -274 27
-370 40 l-174 25 -73 72 c-40 40 -73 76 -73 81 0 5 12 6 28 3 15 -3 56 -10 92
-15z m834 -455 c40 -14 82 -23 93 -20 12 4 48 -9 89 -30 l69 -36 -45 6 c-79
11 -338 102 -292 104 8 0 46 -11 86 -24z m761 -2 c22 -8 60 -22 85 -30 25 -8
74 -30 109 -48 l64 -33 -150 -7 -150 -7 -138 61 c-76 33 -140 62 -141 63 -2 1
50 4 114 5 64 2 118 5 121 8 8 8 46 3 86 -12z m-675 -4 c0 -5 -5 -10 -11 -10
-5 0 -7 5 -4 10 3 6 8 10 11 10 2 0 4 -4 4 -10z"/>
<path d="M1955 6206 c-126 -40 -194 -128 -195 -251 0 -148 113 -259 265 -260
59 0 78 5 124 30 97 54 149 147 138 250 -11 104 -89 200 -188 229 -62 19 -90
19 -144 2z"/>
<path d="M8125 6057 c-52 -29 -87 -92 -87 -156 0 -76 40 -134 114 -166 51 -21
90 -19 143 6 136 64 150 233 26 316 -47 32 -140 32 -196 0z"/>
</g>
</svg>
